<?xml version="1.0" encoding="utf-8"?>
<!-- Generator: Adobe Illustrator 21.1.0, SVG Export Plug-In . SVG Version: 6.00 Build 0)  -->
<svg version="1.1" id="레이어_1" xmlns="http://www.w3.org/2000/svg" xmlns:xlink="http://www.w3.org/1999/xlink" x="0px"
	 y="0px" viewBox="0 0 487.5 88.1" style="enable-background:new 0 0 487.5 88.1;" xml:space="preserve">
<style type="text/css">
	.st0{enable-background:new    ;}
	.st1{fill:#FFFFFF;}
</style>
<title>jellinglogo</title>
<g class="st0">
	<path class="st1" d="M16.6,48.4c-1.7,0-3-0.9-4-2.7c-0.5,0.7-0.8,1.4-0.8,2.1c0,1.3,0.6,2.4,1.8,3.2c1.2,0.8,2.7,1.3,4.5,1.3
		c3.3,0,5.7-1.2,7.3-3.5c1-1.5,1.5-3.8,1.5-7V25.1c0-1.3-0.1-2.3-0.4-2.7c-0.4-0.7-1.2-1-2.3-1c-0.5,0-1.3,0.1-2.3,0.3
		c-1,0.2-1.8,0.3-2.3,0.3c-1.1,0-1.9-0.4-2.6-1.3c-0.7-0.9-1-2-1-3.4c0-1.6,0.5-2.9,1.5-3.9c1-1,2.3-1.4,3.9-1.4
		c1.1,0,2.4,0.1,4.1,0.3c2.5,0.3,5.1,0.4,7.7,0.4c1.6,0,3.5-0.1,5.8-0.4c2.3-0.2,3.8-0.4,4.4-0.4c1.7,0,3,0.5,4.1,1.4
		c1.1,1,1.6,2.2,1.6,3.7c0,1.3-0.4,2.5-1.2,3.4c-0.8,0.9-1.8,1.4-3.1,1.4c-0.6,0-1.2-0.1-1.8-0.3c-1-0.1-1.5-0.2-1.4-0.2
		c-1.2,0-1.8,1.2-1.8,3.7V44c0,3.1-0.4,5.6-1.2,7.5s-2.2,3.6-4.1,5.2c-3.9,3.2-8.7,4.8-14.4,4.8c-5.4,0-9.8-1.4-13.4-4.1
		c-3.6-2.8-5.3-6.3-5.3-10.5c0-3.4,1.2-6.3,3.5-8.7c2.4-2.4,5.2-3.6,8.4-3.6c2.6,0,4.8,0.8,6.6,2.3c1.8,1.5,2.7,3.3,2.7,5.5
		c0,1.7-0.6,3.2-1.7,4.4C19.6,47.8,18.2,48.4,16.6,48.4z"/>
	<path class="st1" d="M85.6,39.1c0,2-0.3,3.4-0.8,4c-0.5,0.7-1.5,1-3,1H64.3c-0.9,0-1.4,0.1-1.6,0.3c-0.2,0.2-0.3,0.6-0.3,1.3
		c0,2,0.6,3.7,1.9,5c1.3,1.3,2.9,2,4.9,2c2,0,4.1-1.1,6.2-3.3c1.4-1.5,3-2.3,4.8-2.3c1.4,0,2.6,0.4,3.5,1.2c0.9,0.8,1.3,1.8,1.3,3.1
		c0,2.8-1.5,5.1-4.6,7.1c-3,1.9-6.8,2.9-11.1,2.9c-5.7,0-10.3-1.7-13.7-5.2c-3.4-3.5-5.1-8.1-5.1-13.8c0-5.8,1.7-10.5,5.1-14.1
		c3.4-3.6,7.8-5.4,13.3-5.4c5.1,0,9.2,1.5,12.2,4.4C84.1,30.3,85.6,34.2,85.6,39.1z M62.7,35.5c0,0.3,0.1,0.5,0.2,0.7
		c0.1,0.2,0.6,0.3,1.5,0.3h8.1c0.7,0,1.2-0.1,1.3-0.3c0.2-0.2,0.3-0.5,0.3-0.9c0-1.2-0.6-2.3-1.7-3.3c-1.1-0.9-2.4-1.4-3.9-1.4
		c-1.9,0-3.5,0.7-4.7,2.2C63.1,33.8,62.7,34.7,62.7,35.5z"/>
	<path class="st1" d="M104.5,11.7c1.3,0,2,0.9,2,2.7v34.1c0,2.4,0.5,3.6,1.4,3.6c0.4,0,0.7,0,1-0.1c0.3-0.1,0.7-0.1,1.2-0.1
		c2.1,0,3.2,1.2,3.2,3.7c0,3.3-1.4,5-4.3,5c0,0-1.9-0.1-5.5-0.4c-1.1-0.1-2.3-0.1-3.5-0.1c-1.1,0-2.2,0.1-3.4,0.2
		c-2,0.2-3.3,0.4-3.8,0.4c-1.3,0-2.4-0.4-3.2-1.3c-0.8-0.9-1.2-2.1-1.2-3.5c0-2.7,1.2-4,3.5-4c0.3,0,0.7,0.1,1.2,0.3
		c0.5,0.2,0.9,0.3,1.2,0.3c0.8,0,1.2-1.3,1.2-4v-24c0-2.7-0.4-4-1.2-4c-0.3,0-0.8,0.1-1.3,0.3c-0.3,0.1-0.7,0.1-1.2,0.1
		c-2.3,0-3.5-1.3-3.5-4c0-1.5,0.4-2.7,1.2-3.5c0.8-0.9,1.9-1.3,3.3-1.3c0.4,0,1.2,0.1,2.4,0.2c1.6,0.2,2.9,0.3,3.7,0.3
		c1.1,0,2.1-0.1,2.9-0.3C103,11.8,103.8,11.7,104.5,11.7z"/>
	<path class="st1" d="M130.7,11.7c1.3,0,2,0.9,2,2.7v34.1c0,2.4,0.5,3.6,1.4,3.6c0.4,0,0.7,0,1-0.1c0.3-0.1,0.7-0.1,1.2-0.1
		c2.1,0,3.2,1.2,3.2,3.7c0,3.3-1.4,5-4.3,5c0,0-1.9-0.1-5.5-0.4c-1.1-0.1-2.3-0.1-3.5-0.1c-1.1,0-2.2,0.1-3.4,0.2
		c-2,0.2-3.3,0.4-3.8,0.4c-1.3,0-2.4-0.4-3.2-1.3c-0.8-0.9-1.2-2.1-1.2-3.5c0-2.7,1.2-4,3.5-4c0.3,0,0.7,0.1,1.2,0.3
		c0.5,0.2,0.9,0.3,1.2,0.3c0.8,0,1.2-1.3,1.2-4v-24c0-2.7-0.4-4-1.2-4c-0.3,0-0.8,0.1-1.3,0.3c-0.3,0.1-0.7,0.1-1.2,0.1
		c-2.3,0-3.5-1.3-3.5-4c0-1.5,0.4-2.7,1.2-3.5c0.8-0.9,1.9-1.3,3.3-1.3c0.4,0,1.2,0.1,2.4,0.2c1.6,0.2,2.9,0.3,3.7,0.3
		c1.1,0,2.1-0.1,2.9-0.3C129.2,11.8,130.1,11.7,130.7,11.7z"/>
	<path class="st1" d="M157.6,23.9c1.3,0,2,0.9,2,2.8v21.7c0,2.4,0.5,3.7,1.4,3.7c0.2,0,0.5-0.1,1-0.2c0.5-0.1,0.9-0.2,1.3-0.2
		c2,0,3,1.2,3,3.7c0,3.3-1.4,5-4.2,5c-0.5,0-1.8-0.1-4-0.4c-1.3-0.1-2.9-0.2-4.6-0.2c-0.9,0-2.1,0.1-3.8,0.3
		c-1.7,0.2-2.9,0.3-3.7,0.3c-1.3,0-2.4-0.4-3.2-1.3c-0.8-0.9-1.2-2-1.2-3.4c0-2.7,1.2-4.1,3.5-4.1l1.9,0.4c0.2,0,0.4,0.1,0.5,0.1
		c0.9,0,1.3-1.3,1.3-4V36.4c0-2.7-0.4-4.1-1.2-4.1c-0.1,0-0.6,0.1-1.3,0.4c-0.5,0.1-0.9,0.1-1.2,0.1c-2.3,0-3.5-1.3-3.5-4
		c0-1.4,0.4-2.6,1.2-3.5c0.8-0.9,1.9-1.3,3.2-1.3c0.5,0,1.3,0.1,2.3,0.2c1.7,0.2,3,0.4,4,0.4c0.8,0,1.9-0.1,3.2-0.3
		C156.7,24,157.5,23.9,157.6,23.9z M153.5,21.2c-1.8,0-3.3-0.6-4.6-1.9c-1.3-1.3-1.9-2.8-1.9-4.6c0-1.8,0.6-3.4,1.9-4.6
		c1.3-1.3,2.8-1.9,4.6-1.9c1.8,0,3.4,0.6,4.6,1.9c1.3,1.3,1.9,2.8,1.9,4.6c0,1.8-0.6,3.4-1.9,4.6C156.9,20.6,155.3,21.2,153.5,21.2z
		"/>
	<path class="st1" d="M183.4,26v3.5c3.7-4.3,7.9-6.5,12.5-6.5c5,0,8.5,1.9,10.6,5.6c1.1,1.9,1.7,4.9,1.7,9.1v10.8
		c0,2.4,0.5,3.7,1.4,3.7c0.2,0,0.6-0.1,1.1-0.2c0.2-0.1,0.6-0.1,1.1-0.1c2.1,0,3.2,1.2,3.2,3.7c0,3.3-1.4,5-4.3,5
		c-0.8,0-1.9-0.1-3.5-0.3c-1.5-0.2-2.7-0.3-3.5-0.3c-1.2,0-2.5,0.1-3.8,0.3c-1.3,0.2-2.4,0.3-3.3,0.3c-2.8,0-4.2-1.5-4.2-4.4
		c0-2.5,1-3.9,3-4c1.3-0.1,1.9-0.7,1.9-1.8V40.1c0-2.8-0.4-4.7-1.1-5.9c-0.7-1.1-1.9-1.7-3.7-1.7c-2,0-3.6,0.7-4.9,2
		c-1.3,1.3-1.9,3-1.9,5.1v7.5c0,2.2,0.1,3.5,0.3,3.9c0.2,0.5,0.7,0.8,1.7,0.9c1.7,0.2,2.6,1.5,2.6,3.9c0,3-1.3,4.5-3.8,4.5
		c-0.7,0-1.6-0.1-2.7-0.2c-1.8-0.2-3.1-0.4-4-0.4c-0.9,0-2.1,0.1-3.9,0.3c-1.7,0.2-3,0.3-3.9,0.3c-3,0-4.5-1.6-4.5-4.8
		c0-2.7,1.2-4,3.5-4c0.4,0,0.8,0.1,1.3,0.3c0.5,0.2,0.8,0.3,1.1,0.3c0.8,0,1.2-1.3,1.2-4V36.4c0-2.7-0.4-4.1-1.2-4.1
		c-0.2,0-0.6,0.1-1.1,0.3c-0.6,0.2-1,0.3-1.3,0.3c-2.3,0-3.5-1.3-3.5-4c0-1.4,0.4-2.6,1.2-3.5c0.8-0.9,1.8-1.4,3.1-1.4
		c0.4,0,1.2,0.1,2.4,0.4c0.7,0.1,1.3,0.2,1.9,0.2c0.6,0,1.6-0.1,3-0.3c1.4-0.2,2.2-0.3,2.3-0.3C182.7,23.9,183.4,24.6,183.4,26z"/>
	<path class="st1" d="M235.8,22.9l2.7,0.1c0-2.4,0.9-4.4,2.4-5.7s3.8-2.1,6.6-2.1c2.3,0,4.1,0.6,5.7,1.7c1.5,1.2,2.3,2.6,2.3,4.4
		c0,1.2-0.4,2.2-1.2,3c-0.8,0.8-1.8,1.2-3,1.2c-1.3,0-2.3-0.5-3-1.5l-0.7-1.2c-0.2-0.3-0.5-0.5-0.9-0.5c-1,0-1.5,0.7-1.5,2.1
		c0,0.3,0,0.6,0.1,0.7c4.6,1.6,6.9,4.9,6.9,9.8c0,3.7-1.4,6.7-4.3,8.9c-2.9,2.3-6.6,3.4-11.3,3.4c-2.5,0-5.1-0.6-7.7-1.7l-0.4-0.1
		c-0.7,0.6-1.1,1.2-1.1,1.9c0,1.6,1.2,2.6,3.5,3c0.8,0.1,2.5,0.2,5.3,0.2h0.8l4.6-0.1c4.6,0,8.2,0.8,10.7,2.7
		c2.5,1.8,3.7,4.4,3.7,7.8c0,4.3-1.9,7.6-5.6,10.1c-3.7,2.5-8.8,3.7-15.3,3.7c-5.8,0-10.4-1.1-13.9-3.2c-3.5-2.1-5.2-5-5.2-8.5
		c0-3.8,2.4-6.5,7.3-8c-3.8-0.8-5.8-3-5.8-6.6c0-1.9,0.4-3.3,1.3-4.4c0.8-1.1,2.3-2.1,4.5-3.1c-1.7-1.9-2.6-4-2.6-6.3
		c0-3.4,1.5-6.2,4.4-8.5C227.9,24.1,231.5,22.9,235.8,22.9z M234.9,59.2c-1.2,0-2.6-0.1-4.3-0.3c-2.2,0.9-3.2,2-3.2,3.3
		c0,2.5,2.8,3.8,8.5,3.8c5.7,0,8.6-1.3,8.6-3.8c0-2.1-1.9-3.1-5.6-3.1c-0.1,0-0.8,0-1.9,0.1H234.9z M236.4,30.5
		c-1.3,0-2.5,0.4-3.3,1.3c-0.9,0.9-1.3,2-1.3,3.3c0,1.3,0.4,2.5,1.3,3.4c0.9,0.9,2,1.4,3.3,1.4c1.3,0,2.5-0.5,3.3-1.4
		c0.9-0.9,1.3-2,1.3-3.3c0-1.3-0.4-2.5-1.3-3.4C238.8,31,237.7,30.5,236.4,30.5z"/>
	<path class="st1" d="M290.2,48.4c-1.7,0-3-0.9-4-2.7c-0.5,0.7-0.8,1.4-0.8,2.1c0,1.3,0.6,2.4,1.8,3.2c1.2,0.8,2.7,1.3,4.5,1.3
		c3.3,0,5.7-1.2,7.3-3.5c1-1.5,1.5-3.8,1.5-7V25.1c0-1.3-0.1-2.3-0.4-2.7c-0.4-0.7-1.2-1-2.3-1c-0.5,0-1.3,0.1-2.3,0.3
		s-1.8,0.3-2.3,0.3c-1.1,0-1.9-0.4-2.6-1.3c-0.7-0.9-1-2-1-3.4c0-1.6,0.5-2.9,1.5-3.9c1-1,2.3-1.4,3.9-1.4c1.1,0,2.4,0.1,4.1,0.3
		c2.5,0.3,5.1,0.4,7.7,0.4c1.6,0,3.5-0.1,5.8-0.4c2.3-0.2,3.8-0.4,4.4-0.4c1.7,0,3,0.5,4.1,1.4c1.1,1,1.6,2.2,1.6,3.7
		c0,1.3-0.4,2.5-1.2,3.4s-1.8,1.4-3.1,1.4c-0.6,0-1.2-0.1-1.8-0.3c-1-0.1-1.5-0.2-1.4-0.2c-1.2,0-1.8,1.2-1.8,3.7V44
		c0,3.1-0.4,5.6-1.2,7.5c-0.8,1.9-2.2,3.6-4.1,5.2c-3.9,3.2-8.7,4.8-14.4,4.8c-5.4,0-9.8-1.4-13.4-4.1c-3.6-2.8-5.3-6.3-5.3-10.5
		c0-3.4,1.2-6.3,3.5-8.7c2.4-2.4,5.2-3.6,8.4-3.6c2.6,0,4.8,0.8,6.6,2.3c1.8,1.5,2.7,3.3,2.7,5.5c0,1.7-0.6,3.2-1.7,4.4
		C293.2,47.8,291.8,48.4,290.2,48.4z"/>
	<path class="st1" d="M359.2,39.1c0,2-0.3,3.4-0.8,4c-0.5,0.7-1.5,1-3,1h-17.6c-0.9,0-1.4,0.1-1.6,0.3c-0.2,0.2-0.3,0.6-0.3,1.3
		c0,2,0.6,3.7,1.9,5c1.3,1.3,2.9,2,4.9,2c2,0,4.1-1.1,6.2-3.3c1.4-1.5,3-2.3,4.8-2.3c1.4,0,2.6,0.4,3.5,1.2c0.9,0.8,1.3,1.8,1.3,3.1
		c0,2.8-1.5,5.1-4.6,7.1c-3,1.9-6.8,2.9-11.1,2.9c-5.7,0-10.3-1.7-13.7-5.2s-5.1-8.1-5.1-13.8c0-5.8,1.7-10.5,5.1-14.1
		c3.4-3.6,7.8-5.4,13.3-5.4c5.1,0,9.2,1.5,12.2,4.4C357.7,30.3,359.2,34.2,359.2,39.1z M336.3,35.5c0,0.3,0.1,0.5,0.2,0.7
		c0.1,0.2,0.6,0.3,1.5,0.3h8.1c0.7,0,1.2-0.1,1.3-0.3c0.2-0.2,0.3-0.5,0.3-0.9c0-1.2-0.6-2.3-1.7-3.3c-1.1-0.9-2.4-1.4-3.9-1.4
		c-1.9,0-3.5,0.7-4.7,2.2C336.7,33.8,336.3,34.7,336.3,35.5z"/>
	<path class="st1" d="M378.1,11.7c1.3,0,2,0.9,2,2.7v34.1c0,2.4,0.5,3.6,1.4,3.6c0.4,0,0.7,0,1-0.1c0.3-0.1,0.7-0.1,1.2-0.1
		c2.1,0,3.2,1.2,3.2,3.7c0,3.3-1.4,5-4.3,5c0,0-1.9-0.1-5.5-0.4c-1.1-0.1-2.3-0.1-3.5-0.1c-1.1,0-2.2,0.1-3.4,0.2
		c-2,0.2-3.3,0.4-3.8,0.4c-1.3,0-2.4-0.4-3.2-1.3c-0.8-0.9-1.2-2.1-1.2-3.5c0-2.7,1.2-4,3.5-4c0.3,0,0.7,0.1,1.2,0.3
		c0.5,0.2,0.9,0.3,1.2,0.3c0.8,0,1.2-1.3,1.2-4v-24c0-2.7-0.4-4-1.2-4c-0.3,0-0.8,0.1-1.3,0.3c-0.3,0.1-0.7,0.1-1.2,0.1
		c-2.3,0-3.5-1.3-3.5-4c0-1.5,0.4-2.7,1.2-3.5s1.9-1.3,3.3-1.3c0.4,0,1.2,0.1,2.4,0.2c1.6,0.2,2.9,0.3,3.7,0.3
		c1.1,0,2.1-0.1,2.9-0.3C376.6,11.8,377.4,11.7,378.1,11.7z"/>
	<path class="st1" d="M404.3,11.7c1.3,0,2,0.9,2,2.7v34.1c0,2.4,0.5,3.6,1.4,3.6c0.4,0,0.7,0,1-0.1c0.3-0.1,0.7-0.1,1.2-0.1
		c2.1,0,3.2,1.2,3.2,3.7c0,3.3-1.4,5-4.3,5c0,0-1.9-0.1-5.5-0.4c-1.1-0.1-2.3-0.1-3.5-0.1c-1.1,0-2.2,0.1-3.4,0.2
		c-2,0.2-3.3,0.4-3.8,0.4c-1.3,0-2.4-0.4-3.2-1.3c-0.8-0.9-1.2-2.1-1.2-3.5c0-2.7,1.2-4,3.5-4c0.3,0,0.7,0.1,1.2,0.3
		c0.5,0.2,0.9,0.3,1.2,0.3c0.8,0,1.2-1.3,1.2-4v-24c0-2.7-0.4-4-1.2-4c-0.3,0-0.8,0.1-1.3,0.3c-0.3,0.1-0.7,0.1-1.2,0.1
		c-2.3,0-3.5-1.3-3.5-4c0-1.5,0.4-2.7,1.2-3.5s1.9-1.3,3.3-1.3c0.4,0,1.2,0.1,2.4,0.2c1.6,0.2,2.9,0.3,3.7,0.3
		c1.1,0,2.1-0.1,2.9-0.3C402.8,11.8,403.7,11.7,404.3,11.7z"/>
	<path class="st1" d="M431.2,23.9c1.3,0,2,0.9,2,2.8v21.7c0,2.4,0.5,3.7,1.4,3.7c0.2,0,0.5-0.1,1-0.2c0.5-0.1,0.9-0.2,1.3-0.2
		c2,0,3,1.2,3,3.7c0,3.3-1.4,5-4.2,5c-0.5,0-1.8-0.1-4-0.4c-1.3-0.1-2.9-0.2-4.6-0.2c-0.9,0-2.1,0.1-3.8,0.3
		c-1.7,0.2-2.9,0.3-3.7,0.3c-1.3,0-2.4-0.4-3.2-1.3c-0.8-0.9-1.2-2-1.2-3.4c0-2.7,1.2-4.1,3.5-4.1l1.9,0.4c0.2,0,0.4,0.1,0.5,0.1
		c0.9,0,1.3-1.3,1.3-4V36.4c0-2.7-0.4-4.1-1.2-4.1c-0.1,0-0.6,0.1-1.3,0.4c-0.5,0.1-0.9,0.1-1.2,0.1c-2.3,0-3.5-1.3-3.5-4
		c0-1.4,0.4-2.6,1.2-3.5c0.8-0.9,1.9-1.3,3.2-1.3c0.5,0,1.3,0.1,2.3,0.2c1.7,0.2,3,0.4,4,0.4c0.8,0,1.9-0.1,3.2-0.3
		C430.3,24,431.1,23.9,431.2,23.9z M427.1,21.2c-1.8,0-3.3-0.6-4.6-1.9c-1.3-1.3-1.9-2.8-1.9-4.6c0-1.8,0.6-3.4,1.9-4.6
		c1.3-1.3,2.8-1.9,4.6-1.9c1.8,0,3.4,0.6,4.6,1.9c1.3,1.3,1.9,2.8,1.9,4.6c0,1.8-0.6,3.4-1.9,4.6C430.5,20.6,428.9,21.2,427.1,21.2z
		"/>
	<path class="st1" d="M457,26v3.5c3.7-4.3,7.9-6.5,12.5-6.5c5,0,8.5,1.9,10.6,5.6c1.1,1.9,1.7,4.9,1.7,9.1v10.8
		c0,2.4,0.5,3.7,1.4,3.7c0.2,0,0.6-0.1,1.1-0.2c0.2-0.1,0.6-0.1,1.1-0.1c2.1,0,3.2,1.2,3.2,3.7c0,3.3-1.4,5-4.3,5
		c-0.8,0-1.9-0.1-3.5-0.3s-2.7-0.3-3.5-0.3c-1.2,0-2.5,0.1-3.8,0.3c-1.3,0.2-2.4,0.3-3.3,0.3c-2.8,0-4.2-1.5-4.2-4.4
		c0-2.5,1-3.9,3-4c1.3-0.1,1.9-0.7,1.9-1.8V40.1c0-2.8-0.4-4.7-1.1-5.9s-1.9-1.7-3.7-1.7c-2,0-3.6,0.7-4.9,2c-1.3,1.3-1.9,3-1.9,5.1
		v7.5c0,2.2,0.1,3.5,0.3,3.9c0.2,0.5,0.7,0.8,1.7,0.9c1.7,0.2,2.6,1.5,2.6,3.9c0,3-1.3,4.5-3.8,4.5c-0.7,0-1.6-0.1-2.7-0.2
		c-1.8-0.2-3.1-0.4-4-0.4c-0.9,0-2.1,0.1-3.9,0.3c-1.7,0.2-3,0.3-3.9,0.3c-3,0-4.5-1.6-4.5-4.8c0-2.7,1.2-4,3.5-4
		c0.4,0,0.8,0.1,1.3,0.3c0.5,0.2,0.8,0.3,1.1,0.3c0.8,0,1.2-1.3,1.2-4V36.4c0-2.7-0.4-4.1-1.2-4.1c-0.2,0-0.6,0.1-1.1,0.3
		c-0.6,0.2-1,0.3-1.3,0.3c-2.3,0-3.5-1.3-3.5-4c0-1.4,0.4-2.6,1.2-3.5c0.8-0.9,1.8-1.4,3.1-1.4c0.4,0,1.2,0.1,2.4,0.4
		c0.7,0.1,1.3,0.2,1.9,0.2c0.6,0,1.6-0.1,3-0.3c1.4-0.2,2.2-0.3,2.3-0.3C456.3,23.9,457,24.6,457,26z"/>
	<path class="st1" d="M509.4,22.9l2.7,0.1c0-2.4,0.9-4.4,2.4-5.7s3.8-2.1,6.6-2.1c2.3,0,4.1,0.6,5.7,1.7c1.5,1.2,2.3,2.6,2.3,4.4
		c0,1.2-0.4,2.2-1.2,3c-0.8,0.8-1.8,1.2-3,1.2c-1.3,0-2.3-0.5-3-1.5l-0.7-1.2c-0.2-0.3-0.5-0.5-0.9-0.5c-1,0-1.5,0.7-1.5,2.1
		c0,0.3,0,0.6,0.1,0.7c4.6,1.6,6.9,4.9,6.9,9.8c0,3.7-1.4,6.7-4.3,8.9c-2.9,2.3-6.6,3.4-11.3,3.4c-2.5,0-5.1-0.6-7.7-1.7l-0.4-0.1
		c-0.7,0.6-1.1,1.2-1.1,1.9c0,1.6,1.2,2.6,3.5,3c0.8,0.1,2.5,0.2,5.3,0.2h0.8l4.6-0.1c4.6,0,8.2,0.8,10.7,2.7s3.7,4.4,3.7,7.8
		c0,4.3-1.9,7.6-5.6,10.1c-3.7,2.5-8.8,3.7-15.3,3.7c-5.8,0-10.4-1.1-13.9-3.2s-5.2-5-5.2-8.5c0-3.8,2.4-6.5,7.3-8
		c-3.8-0.8-5.8-3-5.8-6.6c0-1.9,0.4-3.3,1.3-4.4c0.8-1.1,2.3-2.1,4.5-3.1c-1.7-1.9-2.6-4-2.6-6.3c0-3.4,1.5-6.2,4.4-8.5
		C501.5,24.1,505.1,22.9,509.4,22.9z M508.5,59.2c-1.2,0-2.6-0.1-4.3-0.3c-2.2,0.9-3.2,2-3.2,3.3c0,2.5,2.8,3.8,8.5,3.8
		c5.7,0,8.6-1.3,8.6-3.8c0-2.1-1.9-3.1-5.6-3.1c-0.1,0-0.8,0-1.9,0.1H508.5z M510,30.5c-1.3,0-2.5,0.4-3.3,1.3
		c-0.9,0.9-1.3,2-1.3,3.3c0,1.3,0.4,2.5,1.3,3.4c0.9,0.9,2,1.4,3.3,1.4s2.5-0.5,3.3-1.4c0.9-0.9,1.3-2,1.3-3.3
		c0-1.3-0.4-2.5-1.3-3.4C512.4,31,511.3,30.5,510,30.5z"/>
</g>
</svg>
